<?xml version="1.0" encoding="UTF-8" standalone="no"?>
<!-- Created with Inkscape (http://www.inkscape.org/) -->

<svg
   xmlns:dc="http://purl.org/dc/elements/1.1/"
   xmlns:cc="http://creativecommons.org/ns#"
   xmlns:rdf="http://www.w3.org/1999/02/22-rdf-syntax-ns#"
   xmlns:svg="http://www.w3.org/2000/svg"
   xmlns="http://www.w3.org/2000/svg"
   xmlns:xlink="http://www.w3.org/1999/xlink"
   xmlns:sodipodi="http://sodipodi.sourceforge.net/DTD/sodipodi-0.dtd"
   xmlns:inkscape="http://www.inkscape.org/namespaces/inkscape"
   id="svg4169"
   sodipodi:version="0.32"
   inkscape:version="0.48.0 r9654"
   width="360"
   height="360"
   version="1.0"
   sodipodi:docname="compassring.svg"
   inkscape:output_extension="org.inkscape.output.svg.inkscape">
  <metadata
     id="metadata4174">
    <rdf:RDF>
      <cc:Work
         rdf:about="">
        <dc:format>image/svg+xml</dc:format>
        <dc:type
           rdf:resource="http://purl.org/dc/dcmitype/StillImage" />
        <dc:title></dc:title>
      </cc:Work>
    </rdf:RDF>
  </metadata>
  <defs
     id="defs4172">
    <linearGradient
       id="linearGradient4227">
      <stop
         style="stop-color:#00ffff;stop-opacity:1;"
         offset="0"
         id="stop4229" />
      <stop
         id="stop4235"
         offset="0"
         style="stop-color:#0e95fd;stop-opacity:1;" />
      <stop
         style="stop-color:#ffffff;stop-opacity:0.98230088;"
         offset="1"
         id="stop4231" />
    </linearGradient>
    <linearGradient
       id="linearGradient4062">
      <stop
         style="stop-color:#ffffff;stop-opacity:1;"
         offset="0"
         id="stop4064" />
      <stop
         id="stop4184"
         offset="0.20833333"
         style="stop-color:#ffffff;stop-opacity:0.49803922;" />
      <stop
         style="stop-color:#ffffff;stop-opacity:0;"
         offset="1"
         id="stop4066" />
    </linearGradient>
    <linearGradient
       id="linearGradient5080">
      <stop
         style="stop-color:#0000fd;stop-opacity:1;"
         offset="0"
         id="stop5082" />
      <stop
         id="stop5090"
         offset="0.8611111"
         style="stop-color:#006cc0;stop-opacity:1;" />
      <stop
         id="stop5088"
         offset="1"
         style="stop-color:#002bae;stop-opacity:1;" />
      <stop
         style="stop-color:#000000;stop-opacity:0;"
         offset="1"
         id="stop5084" />
    </linearGradient>
    <linearGradient
       id="linearGradient1640">
      <stop
         style="stop-color:#00b9ff;stop-opacity:1"
         offset="0"
         id="stop1641" />
      <stop
         style="stop-color:#0046a9;stop-opacity:1"
         offset="1"
         id="stop1642" />
    </linearGradient>
    <radialGradient
       cx="832.37164"
       cy="840.52863"
       r="295.80902"
       fx="832.37164"
       fy="840.52863"
       id="radialGradient1491"
       xlink:href="#linearGradient1640"
       gradientUnits="userSpaceOnUse"
       gradientTransform="matrix(0.54087819,0,0,0.5409059,-270.21162,-274.64864)" />
    <linearGradient
       x1="-288.95377"
       y1="314.19281"
       x2="-260.1192"
       y2="314.1153"
       id="linearGradient1503"
       xlink:href="#linearGradient1644"
       gradientUnits="userSpaceOnUse" />
    <linearGradient
       id="linearGradient1644">
      <stop
         style="stop-color:#000000;stop-opacity:1"
         offset="0"
         id="stop1645" />
      <stop
         style="stop-color:#ffffff;stop-opacity:1"
         offset="1"
         id="stop1646" />
    </linearGradient>
    <linearGradient
       x1="-289.10797"
       y1="314.1153"
       x2="-260.1192"
       y2="314.1153"
       id="linearGradient1501"
       xlink:href="#linearGradient1644"
       gradientUnits="userSpaceOnUse" />
    <inkscape:perspective
       sodipodi:type="inkscape:persp3d"
       inkscape:vp_x="0 : 526.18109 : 1"
       inkscape:vp_y="0 : 1000 : 0"
       inkscape:vp_z="744.09448 : 526.18109 : 1"
       inkscape:persp3d-origin="372.04724 : 350.78739 : 1"
       id="perspective4176" />
    <inkscape:perspective
       id="perspective5316"
       inkscape:persp3d-origin="0.5 : 0.33333333 : 1"
       inkscape:vp_z="1 : 0.5 : 1"
       inkscape:vp_y="0 : 1000 : 0"
       inkscape:vp_x="0 : 0.5 : 1"
       sodipodi:type="inkscape:persp3d" />
    <radialGradient
       inkscape:collect="always"
       xlink:href="#linearGradient5080-2"
       id="radialGradient5086-5"
       cx="184.42244"
       cy="179.20158"
       fx="184.42244"
       fy="179.20158"
       r="168.65161"
       gradientTransform="matrix(1,0,0,1.0071627,0,-1.2835745)"
       gradientUnits="userSpaceOnUse" />
    <linearGradient
       id="linearGradient5080-2">
      <stop
         id="stop5090-1"
         offset="0"
         style="stop-color:#202020;stop-opacity:0.50196081;" />
      <stop
         id="stop5088-6"
         offset="1"
         style="stop-color:#000000;stop-opacity:0.50196081;" />
    </linearGradient>
    <radialGradient
       r="168.65161"
       fy="179.20158"
       fx="184.42244"
       cy="179.20158"
       cx="184.42244"
       gradientTransform="matrix(1,0,0,1.0071627,0,-1.2835745)"
       gradientUnits="userSpaceOnUse"
       id="radialGradient5328"
       xlink:href="#linearGradient5080-2"
       inkscape:collect="always" />
    <inkscape:perspective
       id="perspective5405"
       inkscape:persp3d-origin="0.5 : 0.33333333 : 1"
       inkscape:vp_z="1 : 0.5 : 1"
       inkscape:vp_y="0 : 1000 : 0"
       inkscape:vp_x="0 : 0.5 : 1"
       sodipodi:type="inkscape:persp3d" />
    <inkscape:perspective
       id="perspective5429"
       inkscape:persp3d-origin="0.5 : 0.33333333 : 1"
       inkscape:vp_z="1 : 0.5 : 1"
       inkscape:vp_y="0 : 1000 : 0"
       inkscape:vp_x="0 : 0.5 : 1"
       sodipodi:type="inkscape:persp3d" />
    <inkscape:perspective
       id="perspective5451"
       inkscape:persp3d-origin="0.5 : 0.33333333 : 1"
       inkscape:vp_z="1 : 0.5 : 1"
       inkscape:vp_y="0 : 1000 : 0"
       inkscape:vp_x="0 : 0.5 : 1"
       sodipodi:type="inkscape:persp3d" />
    <inkscape:perspective
       id="perspective5482"
       inkscape:persp3d-origin="0.5 : 0.33333333 : 1"
       inkscape:vp_z="1 : 0.5 : 1"
       inkscape:vp_y="0 : 1000 : 0"
       inkscape:vp_x="0 : 0.5 : 1"
       sodipodi:type="inkscape:persp3d" />
    <inkscape:perspective
       id="perspective5513"
       inkscape:persp3d-origin="0.5 : 0.33333333 : 1"
       inkscape:vp_z="1 : 0.5 : 1"
       inkscape:vp_y="0 : 1000 : 0"
       inkscape:vp_x="0 : 0.5 : 1"
       sodipodi:type="inkscape:persp3d" />
    <inkscape:perspective
       id="perspective2913"
       inkscape:persp3d-origin="0.5 : 0.33333333 : 1"
       inkscape:vp_z="1 : 0.5 : 1"
       inkscape:vp_y="0 : 1000 : 0"
       inkscape:vp_x="0 : 0.5 : 1"
       sodipodi:type="inkscape:persp3d" />
    <inkscape:perspective
       id="perspective4194"
       inkscape:persp3d-origin="0.5 : 0.33333333 : 1"
       inkscape:vp_z="1 : 0.5 : 1"
       inkscape:vp_y="0 : 1000 : 0"
       inkscape:vp_x="0 : 0.5 : 1"
       sodipodi:type="inkscape:persp3d" />
    <radialGradient
       inkscape:collect="always"
       xlink:href="#linearGradient4062-2"
       id="radialGradient4102-8"
       cx="-156.62415"
       cy="84.581917"
       fx="-156.62415"
       fy="84.581917"
       r="4.5961938"
       gradientUnits="userSpaceOnUse" />
    <linearGradient
       id="linearGradient4062-2">
      <stop
         style="stop-color:#ffffff;stop-opacity:1;"
         offset="0"
         id="stop4064-7" />
      <stop
         id="stop4184-7"
         offset="0.20833333"
         style="stop-color:#ffffff;stop-opacity:0.49803922;" />
      <stop
         style="stop-color:#ffffff;stop-opacity:0;"
         offset="1"
         id="stop4066-1" />
    </linearGradient>
    <inkscape:perspective
       id="perspective4245"
       inkscape:persp3d-origin="0.5 : 0.33333333 : 1"
       inkscape:vp_z="1 : 0.5 : 1"
       inkscape:vp_y="0 : 1000 : 0"
       inkscape:vp_x="0 : 0.5 : 1"
       sodipodi:type="inkscape:persp3d" />
  </defs>
  <sodipodi:namedview
     inkscape:window-height="775"
     inkscape:window-width="1111"
     inkscape:pageshadow="2"
     inkscape:pageopacity="0.0"
     guidetolerance="10.0"
     gridtolerance="10.0"
     objecttolerance="10.0"
     borderopacity="1.0"
     bordercolor="#666666"
     pagecolor="#ffffff"
     id="base"
     showgrid="false"
     inkscape:zoom="1.6694444"
     inkscape:cx="101.42996"
     inkscape:cy="183.94748"
     inkscape:window-x="167"
     inkscape:window-y="1"
     inkscape:current-layer="svg4169"
     inkscape:window-maximized="0" />
  <path
     sodipodi:type="arc"
     style="fill:none;stroke:url(#radialGradient5328);stroke-width:20;stroke-linecap:butt;stroke-linejoin:round;stroke-miterlimit:10;stroke-opacity:1;stroke-dasharray:none"
     id="path2858"
     sodipodi:cx="184.42244"
     sodipodi:cy="179.20158"
     sodipodi:rx="158.65161"
     sodipodi:ry="159.85962"
     d="m 343.07405,179.20158 a 158.65161,159.85962 0 1 1 -317.303222,0 158.65161,159.85962 0 1 1 317.303222,0 z"
     transform="matrix(1.0675285,0,0,1.0594616,-16.87622,-9.8571986)" />
  <path
     sodipodi:type="arc"
     style="fill:#6e6e6e;fill-opacity:1;fill-rule:nonzero;stroke:none"
     id="path3194"
     sodipodi:cx="-156.62415"
     sodipodi:cy="84.581917"
     sodipodi:rx="4.5961938"
     sodipodi:ry="4.5961938"
     d="m -152.02795,84.581917 a 4.5961938,4.5961938 0 1 1 -9.19239,0 4.5961938,4.5961938 0 1 1 9.19239,0 z"
     transform="matrix(1.0878567,0,0,1.0878567,348.47224,258.98699)" />
  <path
     sodipodi:type="arc"
     style="fill:#ffffff;fill-opacity:1;fill-rule:nonzero;stroke:none"
     id="path3196"
     sodipodi:cx="-156.62415"
     sodipodi:cy="84.581917"
     sodipodi:rx="4.5961938"
     sodipodi:ry="4.5961938"
     d="m -152.02795,84.581917 a 4.5961938,4.5961938 0 1 1 -9.19239,0 4.5961938,4.5961938 0 1 1 9.19239,0 z"
     transform="matrix(0.9421115,0.5439283,-0.5439283,0.9421115,456.65153,39.282395)" />
  <path
     sodipodi:type="arc"
     style="fill:#ffffff;fill-opacity:1;fill-rule:nonzero;stroke:none"
     id="path3198"
     sodipodi:cx="-156.62415"
     sodipodi:cy="84.581917"
     sodipodi:rx="4.5961938"
     sodipodi:ry="4.5961938"
     d="m -152.02795,84.581917 a 4.5961938,4.5961938 0 1 1 -9.19239,0 4.5961938,4.5961938 0 1 1 9.19239,0 z"
     transform="matrix(0.9421115,0.5439283,-0.5439283,0.9421115,286.65153,333.73103)" />
  <path
     sodipodi:type="arc"
     style="fill:#ffffff;fill-opacity:1;fill-rule:nonzero;stroke:none"
     id="path3200"
     sodipodi:cx="-156.62415"
     sodipodi:cy="84.581917"
     sodipodi:rx="4.5961938"
     sodipodi:ry="4.5961938"
     d="m -152.02795,84.581917 a 4.5961938,4.5961938 0 1 1 -9.19239,0 4.5961938,4.5961938 0 1 1 9.19239,0 z"
     transform="matrix(0.5439284,0.9421115,-0.9421115,0.5439284,490.18984,197.55092)" />
  <path
     sodipodi:type="arc"
     style="fill:#ffffff;fill-opacity:1;fill-rule:nonzero;stroke:none"
     id="path3202"
     sodipodi:cx="-156.62415"
     sodipodi:cy="84.581917"
     sodipodi:rx="4.5961938"
     sodipodi:ry="4.5961938"
     d="m -152.02795,84.581917 a 4.5961938,4.5961938 0 1 1 -9.19239,0 4.5961938,4.5961938 0 1 1 9.19239,0 z"
     transform="matrix(0.5439284,0.9421115,-0.9421115,0.5439284,195.74121,367.55091)" />
  <path
     sodipodi:type="arc"
     style="fill:#aeaeae;fill-opacity:1;fill-rule:nonzero;stroke:none"
     id="path3204"
     sodipodi:cx="-156.62415"
     sodipodi:cy="84.581917"
     sodipodi:rx="4.5961938"
     sodipodi:ry="4.5961938"
     d="m -152.02795,84.581917 a 4.5961938,4.5961938 0 1 1 -9.19239,0 4.5961938,4.5961938 0 1 1 9.19239,0 z"
     transform="matrix(0,1.0878567,-1.0878567,0,440.10061,351.38463)" />
  <path
     sodipodi:type="arc"
     style="fill:#ffffff;fill-opacity:1;fill-rule:nonzero;stroke:none"
     id="path3208"
     sodipodi:cx="-156.62415"
     sodipodi:cy="84.581917"
     sodipodi:rx="4.5961938"
     sodipodi:ry="4.5961938"
     d="m -152.02795,84.581917 a 4.5961938,4.5961938 0 1 1 -9.19239,0 4.5961938,4.5961938 0 1 1 9.19239,0 z"
     transform="matrix(-0.5439283,0.9421115,-0.9421115,-0.5439283,319.80521,459.56392)" />
  <path
     sodipodi:type="arc"
     style="fill:#ffffff;fill-opacity:1;fill-rule:nonzero;stroke:none"
     id="path3210"
     sodipodi:cx="-156.62415"
     sodipodi:cy="84.581917"
     sodipodi:rx="4.5961938"
     sodipodi:ry="4.5961938"
     d="m -152.02795,84.581917 a 4.5961938,4.5961938 0 1 1 -9.19239,0 4.5961938,4.5961938 0 1 1 9.19239,0 z"
     transform="matrix(-0.5439283,0.9421115,-0.9421115,-0.5439283,25.356589,289.56392)" />
  <path
     sodipodi:type="arc"
     style="fill:#ffffff;fill-opacity:1;fill-rule:nonzero;stroke:none"
     id="path3212"
     sodipodi:cx="-156.62415"
     sodipodi:cy="84.581917"
     sodipodi:rx="4.5961938"
     sodipodi:ry="4.5961938"
     d="m -152.02795,84.581917 a 4.5961938,4.5961938 0 1 1 -9.19239,0 4.5961938,4.5961938 0 1 1 9.19239,0 z"
     transform="matrix(0.9421115,-0.5439283,0.5439283,0.9421115,194.63853,-131.10223)" />
  <path
     sodipodi:type="arc"
     style="fill:#ffffff;fill-opacity:1;fill-rule:nonzero;stroke:none"
     id="path3214"
     sodipodi:cx="-156.62415"
     sodipodi:cy="84.581917"
     sodipodi:rx="4.5961938"
     sodipodi:ry="4.5961938"
     d="m -152.02795,84.581917 a 4.5961938,4.5961938 0 1 1 -9.19239,0 4.5961938,4.5961938 0 1 1 9.19239,0 z"
     transform="matrix(0.9421115,-0.5439283,0.5439283,0.9421115,364.63852,163.3464)" />
  <path
     sodipodi:type="arc"
     style="fill:#ffffff;fill-opacity:1;fill-rule:nonzero;stroke:none"
     id="path3216"
     sodipodi:cx="-156.62415"
     sodipodi:cy="84.581917"
     sodipodi:rx="4.5961938"
     sodipodi:ry="4.5961938"
     d="m -152.02795,84.581917 a 4.5961938,4.5961938 0 1 1 -9.19239,0 4.5961938,4.5961938 0 1 1 9.19239,0 z"
     transform="matrix(1.0820152,0.1125851,-0.1125851,1.0820152,374.6737,-61.972505)" />
  <path
     sodipodi:type="arc"
     style="fill:#ffffff;fill-opacity:1;fill-rule:nonzero;stroke:none"
     id="path3218"
     sodipodi:cx="-156.62415"
     sodipodi:cy="84.581917"
     sodipodi:rx="4.5961938"
     sodipodi:ry="4.5961938"
     d="m -152.02795,84.581917 a 4.5961938,4.5961938 0 1 1 -9.19239,0 4.5961938,4.5961938 0 1 1 9.19239,0 z"
     transform="matrix(1.0820152,0.1125851,-0.1125851,1.0820152,339.48623,276.20176)" />
  <path
     sodipodi:type="arc"
     style="fill:#ffffff;fill-opacity:1;fill-rule:nonzero;stroke:none"
     id="path3220"
     sodipodi:cx="-156.62415"
     sodipodi:cy="84.581917"
     sodipodi:rx="4.5961938"
     sodipodi:ry="4.5961938"
     d="m -152.02795,84.581917 a 4.5961938,4.5961938 0 1 1 -9.19239,0 4.5961938,4.5961938 0 1 1 9.19239,0 z"
     transform="matrix(0.88076,0.6385091,-0.6385091,0.88076,469.82241,68.872685)" />
  <path
     sodipodi:type="arc"
     style="fill:#ffffff;fill-opacity:1;fill-rule:nonzero;stroke:none"
     id="path3222"
     sodipodi:cx="-156.62415"
     sodipodi:cy="84.581917"
     sodipodi:rx="4.5961938"
     sodipodi:ry="4.5961938"
     d="m -152.02795,84.581917 a 4.5961938,4.5961938 0 1 1 -9.19239,0 4.5961938,4.5961938 0 1 1 9.19239,0 z"
     transform="matrix(0.88076,0.6385091,-0.6385091,0.88076,270.26203,344.14646)" />
  <path
     sodipodi:type="arc"
     style="fill:#ffffff;fill-opacity:1;fill-rule:nonzero;stroke:none"
     id="path3224"
     sodipodi:cx="-156.62415"
     sodipodi:cy="84.581917"
     sodipodi:rx="4.5961938"
     sodipodi:ry="4.5961938"
     d="m -152.02795,84.581917 a 4.5961938,4.5961938 0 1 1 -9.19239,0 4.5961938,4.5961938 0 1 1 9.19239,0 z"
     transform="matrix(0.4435061,0.9933451,-0.9933451,0.4435061,486.80101,229.76231)" />
  <path
     sodipodi:type="arc"
     style="fill:#ffffff;fill-opacity:1;fill-rule:nonzero;stroke:none"
     id="path3226"
     sodipodi:cx="-156.62415"
     sodipodi:cy="84.581917"
     sodipodi:rx="4.5961938"
     sodipodi:ry="4.5961938"
     d="m -152.02795,84.581917 a 4.5961938,4.5961938 0 1 1 -9.19239,0 4.5961938,4.5961938 0 1 1 9.19239,0 z"
     transform="matrix(0.4435061,0.9933451,-0.9933451,0.4435061,176.33977,368.37619)" />
  <path
     sodipodi:type="arc"
     style="fill:#ffffff;fill-opacity:1;fill-rule:nonzero;stroke:none"
     id="path3228"
     sodipodi:cx="-156.62415"
     sodipodi:cy="84.581917"
     sodipodi:rx="4.5961938"
     sodipodi:ry="4.5961938"
     d="m -152.02795,84.581917 a 4.5961938,4.5961938 0 1 1 -9.19239,0 4.5961938,4.5961938 0 1 1 9.19239,0 z"
     transform="matrix(-0.1125851,1.0820152,-1.0820152,-0.1125851,421.06011,377.5861)" />
  <path
     sodipodi:type="arc"
     style="fill:#ffffff;fill-opacity:1;fill-rule:nonzero;stroke:none"
     id="path3230"
     sodipodi:cx="-156.62415"
     sodipodi:cy="84.581917"
     sodipodi:rx="4.5961938"
     sodipodi:ry="4.5961938"
     d="m -152.02795,84.581917 a 4.5961938,4.5961938 0 1 1 -9.19239,0 4.5961938,4.5961938 0 1 1 9.19239,0 z"
     transform="matrix(-0.1125851,1.0820152,-1.0820152,-0.1125851,82.885849,342.39863)" />
  <path
     sodipodi:type="arc"
     style="fill:#ffffff;fill-opacity:1;fill-rule:nonzero;stroke:none"
     id="path3232"
     sodipodi:cx="-156.62415"
     sodipodi:cy="84.581917"
     sodipodi:rx="4.5961938"
     sodipodi:ry="4.5961938"
     d="m -152.02795,84.581917 a 4.5961938,4.5961938 0 1 1 -9.19239,0 4.5961938,4.5961938 0 1 1 9.19239,0 z"
     transform="matrix(-0.6385091,0.88076,-0.88076,-0.6385091,290.21491,472.73481)" />
  <path
     sodipodi:type="arc"
     style="fill:#ffffff;fill-opacity:1;fill-rule:nonzero;stroke:none"
     id="path3234"
     sodipodi:cx="-156.62415"
     sodipodi:cy="84.581917"
     sodipodi:rx="4.5961938"
     sodipodi:ry="4.5961938"
     d="m -152.02795,84.581917 a 4.5961938,4.5961938 0 1 1 -9.19239,0 4.5961938,4.5961938 0 1 1 9.19239,0 z"
     transform="matrix(-0.6385091,0.88076,-0.88076,-0.6385091,14.941149,273.17443)" />
  <path
     sodipodi:type="arc"
     style="fill:#ffffff;fill-opacity:1;fill-rule:nonzero;stroke:none"
     id="path3236"
     sodipodi:cx="-156.62415"
     sodipodi:cy="84.581917"
     sodipodi:rx="4.5961938"
     sodipodi:ry="4.5961938"
     d="m -152.02795,84.581917 a 4.5961938,4.5961938 0 1 1 -9.19239,0 4.5961938,4.5961938 0 1 1 9.19239,0 z"
     transform="matrix(0.9933451,-0.443506,0.443506,0.9933451,226.84991,-127.7134)" />
  <path
     sodipodi:type="arc"
     style="fill:#ffffff;fill-opacity:1;fill-rule:nonzero;stroke:none"
     id="path3238"
     sodipodi:cx="-156.62415"
     sodipodi:cy="84.581917"
     sodipodi:rx="4.5961938"
     sodipodi:ry="4.5961938"
     d="m -152.02795,84.581917 a 4.5961938,4.5961938 0 1 1 -9.19239,0 4.5961938,4.5961938 0 1 1 9.19239,0 z"
     transform="matrix(0.9933451,-0.443506,0.443506,0.9933451,365.46379,182.74783)" />
  <path
     sodipodi:type="arc"
     style="fill:#ffffff;fill-opacity:1;fill-rule:nonzero;stroke:none"
     id="path3240"
     sodipodi:cx="-156.62415"
     sodipodi:cy="84.581917"
     sodipodi:rx="4.5961938"
     sodipodi:ry="4.5961938"
     d="m -152.02795,84.581917 a 4.5961938,4.5961938 0 1 1 -9.19239,0 4.5961938,4.5961938 0 1 1 9.19239,0 z"
     transform="matrix(1.063886,0.2271098,-0.2271098,1.063886,399.41779,-39.66871)" />
  <path
     sodipodi:type="arc"
     style="fill:#ffffff;fill-opacity:1;fill-rule:nonzero;stroke:none"
     id="path3242"
     sodipodi:cx="-156.62415"
     sodipodi:cy="84.581917"
     sodipodi:rx="4.5961938"
     sodipodi:ry="4.5961938"
     d="m -152.02795,84.581917 a 4.5961938,4.5961938 0 1 1 -9.19239,0 4.5961938,4.5961938 0 1 1 9.19239,0 z"
     transform="matrix(1.063886,0.2271098,-0.2271098,1.063886,328.43664,292.83943)" />
  <path
     sodipodi:type="arc"
     style="fill:#ffffff;fill-opacity:1;fill-rule:nonzero;stroke:none"
     id="path3244"
     sodipodi:cx="-156.62415"
     sodipodi:cy="84.581917"
     sodipodi:rx="4.5961938"
     sodipodi:ry="4.5961938"
     d="m -152.02795,84.581917 a 4.5961938,4.5961938 0 1 1 -9.19239,0 4.5961938,4.5961938 0 1 1 9.19239,0 z"
     transform="matrix(0.8077974,0.7286258,-0.7286258,0.8077974,480.09953,100.56037)" />
  <path
     sodipodi:type="arc"
     style="fill:#ffffff;fill-opacity:1;fill-rule:nonzero;stroke:none"
     id="path3246"
     sodipodi:cx="-156.62415"
     sodipodi:cy="84.581917"
     sodipodi:rx="4.5961938"
     sodipodi:ry="4.5961938"
     d="m -152.02795,84.581917 a 4.5961938,4.5961938 0 1 1 -9.19239,0 4.5961938,4.5961938 0 1 1 9.19239,0 z"
     transform="matrix(0.8077974,0.7286258,-0.7286258,0.8077974,252.37397,353.03031)" />
  <path
     sodipodi:type="arc"
     style="fill:#ffffff;fill-opacity:1;fill-rule:nonzero;stroke:none"
     id="path3248"
     sodipodi:cx="-156.62415"
     sodipodi:cy="84.581917"
     sodipodi:rx="4.5961938"
     sodipodi:ry="4.5961938"
     d="m -152.02795,84.581917 a 4.5961938,4.5961938 0 1 1 -9.19239,0 4.5961938,4.5961938 0 1 1 9.19239,0 z"
     transform="matrix(0.3352602,1.0349071,-1.0349071,0.3352602,479.85741,262.34321)" />
  <path
     sodipodi:type="arc"
     style="fill:#ffffff;fill-opacity:1;fill-rule:nonzero;stroke:none"
     id="path3250"
     sodipodi:cx="-156.62415"
     sodipodi:cy="84.581917"
     sodipodi:rx="4.5961938"
     sodipodi:ry="4.5961938"
     d="m -152.02795,84.581917 a 4.5961938,4.5961938 0 1 1 -9.19239,0 4.5961938,4.5961938 0 1 1 9.19239,0 z"
     transform="matrix(0.3352602,1.0349071,-1.0349071,0.3352602,156.40633,367.1258)" />
  <path
     sodipodi:type="arc"
     style="fill:#ffffff;fill-opacity:1;fill-rule:nonzero;stroke:none"
     id="path3252"
     sodipodi:cx="-156.62415"
     sodipodi:cy="84.581917"
     sodipodi:rx="4.5961938"
     sodipodi:ry="4.5961938"
     d="m -152.02795,84.581917 a 4.5961938,4.5961938 0 1 1 -9.19239,0 4.5961938,4.5961938 0 1 1 9.19239,0 z"
     transform="matrix(-0.2271098,1.063886,-1.063886,-0.2271098,398.75632,402.33019)" />
  <path
     sodipodi:type="arc"
     style="fill:#ffffff;fill-opacity:1;fill-rule:nonzero;stroke:none"
     id="path3254"
     sodipodi:cx="-156.62415"
     sodipodi:cy="84.581917"
     sodipodi:rx="4.5961938"
     sodipodi:ry="4.5961938"
     d="m -152.02795,84.581917 a 4.5961938,4.5961938 0 1 1 -9.19239,0 4.5961938,4.5961938 0 1 1 9.19239,0 z"
     transform="matrix(-0.2271098,1.063886,-1.063886,-0.2271098,66.248179,331.34904)" />
  <path
     sodipodi:type="arc"
     style="fill:#ffffff;fill-opacity:1;fill-rule:nonzero;stroke:none"
     id="path3256"
     sodipodi:cx="-156.62415"
     sodipodi:cy="84.581917"
     sodipodi:rx="4.5961938"
     sodipodi:ry="4.5961938"
     d="m -152.02795,84.581917 a 4.5961938,4.5961938 0 1 1 -9.19239,0 4.5961938,4.5961938 0 1 1 9.19239,0 z"
     transform="matrix(-0.7286258,0.8077974,-0.8077974,-0.7286258,258.52722,483.01192)" />
  <path
     sodipodi:type="arc"
     style="fill:#ffffff;fill-opacity:1;fill-rule:nonzero;stroke:none"
     id="path3258"
     sodipodi:cx="-156.62415"
     sodipodi:cy="84.581917"
     sodipodi:rx="4.5961938"
     sodipodi:ry="4.5961938"
     d="m -152.02795,84.581917 a 4.5961938,4.5961938 0 1 1 -9.19239,0 4.5961938,4.5961938 0 1 1 9.19239,0 z"
     transform="matrix(-0.7286258,0.8077974,-0.8077974,-0.7286258,6.0572988,255.28637)" />
  <path
     sodipodi:type="arc"
     style="fill:#ffffff;fill-opacity:1;fill-rule:nonzero;stroke:none"
     id="path3260"
     sodipodi:cx="-156.62415"
     sodipodi:cy="84.581917"
     sodipodi:rx="4.5961938"
     sodipodi:ry="4.5961938"
     d="m -152.02795,84.581917 a 4.5961938,4.5961938 0 1 1 -9.19239,0 4.5961938,4.5961938 0 1 1 9.19239,0 z"
     transform="matrix(1.0349071,-0.3352601,0.3352601,1.0349071,259.43081,-120.76981)" />
  <path
     sodipodi:type="arc"
     style="fill:#ffffff;fill-opacity:1;fill-rule:nonzero;stroke:none"
     id="path3262"
     sodipodi:cx="-156.62415"
     sodipodi:cy="84.581917"
     sodipodi:rx="4.5961938"
     sodipodi:ry="4.5961938"
     d="m -152.02795,84.581917 a 4.5961938,4.5961938 0 1 1 -9.19239,0 4.5961938,4.5961938 0 1 1 9.19239,0 z"
     transform="matrix(1.0349071,-0.3352601,0.3352601,1.0349071,364.2134,202.68128)" />
  <path
     sodipodi:type="arc"
     style="fill:#ffffff;fill-opacity:1;fill-rule:nonzero;stroke:none"
     id="path3264"
     sodipodi:cx="-156.62415"
     sodipodi:cy="84.581917"
     sodipodi:rx="4.5961938"
     sodipodi:ry="4.5961938"
     d="m -152.02795,84.581917 a 4.5961938,4.5961938 0 1 1 -9.19239,0 4.5961938,4.5961938 0 1 1 9.19239,0 z"
     transform="matrix(1.0344329,0.3367205,-0.3367205,1.0344329,421.20475,-15.407198)" />
  <path
     sodipodi:type="arc"
     style="fill:#ffffff;fill-opacity:1;fill-rule:nonzero;stroke:none"
     id="path3266"
     sodipodi:cx="-156.62415"
     sodipodi:cy="84.581917"
     sodipodi:rx="4.5961938"
     sodipodi:ry="4.5961938"
     d="m -152.02795,84.581917 a 4.5961938,4.5961938 0 1 1 -9.19239,0 4.5961938,4.5961938 0 1 1 9.19239,0 z"
     transform="matrix(1.0344329,0.3367205,-0.3367205,1.0344329,315.96574,307.89567)" />
  <path
     sodipodi:type="arc"
     style="fill:#ffffff;fill-opacity:1;fill-rule:nonzero;stroke:none"
     id="path3268"
     sodipodi:cx="-156.62415"
     sodipodi:cy="84.581917"
     sodipodi:rx="4.5961938"
     sodipodi:ry="4.5961938"
     d="m -152.02795,84.581917 a 4.5961938,4.5961938 0 1 1 -9.19239,0 4.5961938,4.5961938 0 1 1 9.19239,0 z"
     transform="matrix(0.7274849,0.8088249,-0.8088249,0.7274849,486.83683,132.46495)" />
  <path
     sodipodi:type="arc"
     style="fill:#ffffff;fill-opacity:1;fill-rule:nonzero;stroke:none"
     id="path3270"
     sodipodi:cx="-156.62415"
     sodipodi:cy="84.581917"
     sodipodi:rx="4.5961938"
     sodipodi:ry="4.5961938"
     d="m -152.02795,84.581917 a 4.5961938,4.5961938 0 1 1 -9.19239,0 4.5961938,4.5961938 0 1 1 9.19239,0 z"
     transform="matrix(0.7274849,0.8088249,-0.8088249,0.7274849,234.04573,359.83394)" />
  <path
     sodipodi:type="arc"
     style="fill:#ffffff;fill-opacity:1;fill-rule:nonzero;stroke:none"
     id="path3272"
     sodipodi:cx="-156.62415"
     sodipodi:cy="84.581917"
     sodipodi:rx="4.5961938"
     sodipodi:ry="4.5961938"
     d="m -152.02795,84.581917 a 4.5961938,4.5961938 0 1 1 -9.19239,0 4.5961938,4.5961938 0 1 1 9.19239,0 z"
     transform="matrix(0.225608,1.0642054,-1.0642054,0.225608,469.73979,293.34203)" />
  <path
     sodipodi:type="arc"
     style="fill:#ffffff;fill-opacity:1;fill-rule:nonzero;stroke:none"
     id="path3274"
     sodipodi:cx="-156.62415"
     sodipodi:cy="84.581917"
     sodipodi:rx="4.5961938"
     sodipodi:ry="4.5961938"
     d="m -152.02795,84.581917 a 4.5961938,4.5961938 0 1 1 -9.19239,0 4.5961938,4.5961938 0 1 1 9.19239,0 z"
     transform="matrix(0.225608,1.0642054,-1.0642054,0.225608,137.13179,363.8538)" />
  <path
     sodipodi:type="arc"
     style="fill:#ffffff;fill-opacity:1;fill-rule:nonzero;stroke:none"
     id="path3276"
     sodipodi:cx="-156.62415"
     sodipodi:cy="84.581917"
     sodipodi:rx="4.5961938"
     sodipodi:ry="4.5961938"
     d="m -152.02795,84.581917 a 4.5961938,4.5961938 0 1 1 -9.19239,0 4.5961938,4.5961938 0 1 1 9.19239,0 z"
     transform="matrix(-0.3367205,1.0344329,-1.0344329,-0.3367205,374.49479,424.11715)" />
  <path
     sodipodi:type="arc"
     style="fill:#ffffff;fill-opacity:1;fill-rule:nonzero;stroke:none"
     id="path3278"
     sodipodi:cx="-156.62415"
     sodipodi:cy="84.581917"
     sodipodi:rx="4.5961938"
     sodipodi:ry="4.5961938"
     d="m -152.02795,84.581917 a 4.5961938,4.5961938 0 1 1 -9.19239,0 4.5961938,4.5961938 0 1 1 9.19239,0 z"
     transform="matrix(-0.3367205,1.0344329,-1.0344329,-0.3367205,51.191939,318.87814)" />
  <path
     sodipodi:type="arc"
     style="fill:#ffffff;fill-opacity:1;fill-rule:nonzero;stroke:none"
     id="path3280"
     sodipodi:cx="-156.62415"
     sodipodi:cy="84.581917"
     sodipodi:rx="4.5961938"
     sodipodi:ry="4.5961938"
     d="m -152.02795,84.581917 a 4.5961938,4.5961938 0 1 1 -9.19239,0 4.5961938,4.5961938 0 1 1 9.19239,0 z"
     transform="matrix(-0.8088249,0.7274849,-0.7274849,-0.8088249,226.62264,489.74923)" />
  <path
     sodipodi:type="arc"
     style="fill:#ffffff;fill-opacity:1;fill-rule:nonzero;stroke:none"
     id="path3282"
     sodipodi:cx="-156.62415"
     sodipodi:cy="84.581917"
     sodipodi:rx="4.5961938"
     sodipodi:ry="4.5961938"
     d="m -152.02795,84.581917 a 4.5961938,4.5961938 0 1 1 -9.19239,0 4.5961938,4.5961938 0 1 1 9.19239,0 z"
     transform="matrix(-0.8088249,0.7274849,-0.7274849,-0.8088249,-0.74634122,236.95813)" />
  <path
     sodipodi:type="arc"
     style="fill:#ffffff;fill-opacity:1;fill-rule:nonzero;stroke:none"
     id="path3284"
     sodipodi:cx="-156.62415"
     sodipodi:cy="84.581917"
     sodipodi:rx="4.5961938"
     sodipodi:ry="4.5961938"
     d="m -152.02795,84.581917 a 4.5961938,4.5961938 0 1 1 -9.19239,0 4.5961938,4.5961938 0 1 1 9.19239,0 z"
     transform="matrix(1.0642054,-0.2256079,0.2256079,1.0642054,290.42963,-110.6522)" />
  <path
     sodipodi:type="arc"
     style="fill:#ffffff;fill-opacity:1;fill-rule:nonzero;stroke:none"
     id="path3286"
     sodipodi:cx="-156.62415"
     sodipodi:cy="84.581917"
     sodipodi:rx="4.5961938"
     sodipodi:ry="4.5961938"
     d="m -152.02795,84.581917 a 4.5961938,4.5961938 0 1 1 -9.19239,0 4.5961938,4.5961938 0 1 1 9.19239,0 z"
     transform="matrix(1.0642054,-0.2256079,0.2256079,1.0642054,360.9414,221.95581)" />
  <path
     sodipodi:type="arc"
     style="fill:#ffffff;fill-opacity:1;fill-rule:nonzero;stroke:none"
     id="path3288"
     sodipodi:cx="-156.62415"
     sodipodi:cy="84.581917"
     sodipodi:rx="4.5961938"
     sodipodi:ry="4.5961938"
     d="m -152.02795,84.581917 a 4.5961938,4.5961938 0 1 1 -9.19239,0 4.5961938,4.5961938 0 1 1 9.19239,0 z"
     transform="matrix(0.9933436,0.4435095,-0.4435095,0.9933436,440.48957,11.215015)" />
  <path
     sodipodi:type="arc"
     style="fill:#ffffff;fill-opacity:1;fill-rule:nonzero;stroke:none"
     id="path3290"
     sodipodi:cx="-156.62415"
     sodipodi:cy="84.581917"
     sodipodi:rx="4.5961938"
     sodipodi:ry="4.5961938"
     d="m -152.02795,84.581917 a 4.5961938,4.5961938 0 1 1 -9.19239,0 4.5961938,4.5961938 0 1 1 9.19239,0 z"
     transform="matrix(0.9933436,0.4435095,-0.4435095,0.9933436,301.8746,321.67577)" />
  <path
     sodipodi:type="arc"
     style="fill:#ffffff;fill-opacity:1;fill-rule:nonzero;stroke:none"
     id="path3292"
     sodipodi:cx="-156.62415"
     sodipodi:cy="84.581917"
     sodipodi:rx="4.5961938"
     sodipodi:ry="4.5961938"
     d="m -152.02795,84.581917 a 4.5961938,4.5961938 0 1 1 -9.19239,0 4.5961938,4.5961938 0 1 1 9.19239,0 z"
     transform="matrix(0.638506,0.8807622,-0.8807622,0.638506,490.22687,165.16287)" />
  <path
     sodipodi:type="arc"
     style="fill:#ffffff;fill-opacity:1;fill-rule:nonzero;stroke:none"
     id="path3294"
     sodipodi:cx="-156.62415"
     sodipodi:cy="84.581917"
     sodipodi:rx="4.5961938"
     sodipodi:ry="4.5961938"
     d="m -152.02795,84.581917 a 4.5961938,4.5961938 0 1 1 -9.19239,0 4.5961938,4.5961938 0 1 1 9.19239,0 z"
     transform="matrix(0.638506,0.8807622,-0.8807622,0.638506,214.9524,364.72229)" />
  <path
     sodipodi:type="arc"
     style="fill:#ffffff;fill-opacity:1;fill-rule:nonzero;stroke:none"
     id="path3296"
     sodipodi:cx="-156.62415"
     sodipodi:cy="84.581917"
     sodipodi:rx="4.5961938"
     sodipodi:ry="4.5961938"
     d="m -152.02795,84.581917 a 4.5961938,4.5961938 0 1 1 -9.19239,0 4.5961938,4.5961938 0 1 1 9.19239,0 z"
     transform="matrix(0.1125814,1.0820155,-1.0820155,0.1125814,456.32669,323.35428)" />
  <path
     sodipodi:type="arc"
     style="fill:#ffffff;fill-opacity:1;fill-rule:nonzero;stroke:none"
     id="path3298"
     sodipodi:cx="-156.62415"
     sodipodi:cy="84.581917"
     sodipodi:rx="4.5961938"
     sodipodi:ry="4.5961938"
     d="m -152.02795,84.581917 a 4.5961938,4.5961938 0 1 1 -9.19239,0 4.5961938,4.5961938 0 1 1 9.19239,0 z"
     transform="matrix(0.1125814,1.0820155,-1.0820155,0.1125814,118.15231,358.54056)" />
  <path
     sodipodi:type="arc"
     style="fill:#ffffff;fill-opacity:1;fill-rule:nonzero;stroke:none"
     id="path3300"
     sodipodi:cx="-156.62415"
     sodipodi:cy="84.581917"
     sodipodi:rx="4.5961938"
     sodipodi:ry="4.5961938"
     d="m -152.02795,84.581917 a 4.5961938,4.5961938 0 1 1 -9.19239,0 4.5961938,4.5961938 0 1 1 9.19239,0 z"
     transform="matrix(-0.4435095,0.9933436,-0.9933436,-0.4435095,347.87259,443.40196)" />
  <path
     sodipodi:type="arc"
     style="fill:#ffffff;fill-opacity:1;fill-rule:nonzero;stroke:none"
     id="path3302"
     sodipodi:cx="-156.62415"
     sodipodi:cy="84.581917"
     sodipodi:rx="4.5961938"
     sodipodi:ry="4.5961938"
     d="m -152.02795,84.581917 a 4.5961938,4.5961938 0 1 1 -9.19239,0 4.5961938,4.5961938 0 1 1 9.19239,0 z"
     transform="matrix(-0.4435095,0.9933436,-0.9933436,-0.4435095,37.411839,304.787)" />
  <path
     sodipodi:type="arc"
     style="fill:#ffffff;fill-opacity:1;fill-rule:nonzero;stroke:none"
     id="path3304"
     sodipodi:cx="-156.62415"
     sodipodi:cy="84.581917"
     sodipodi:rx="4.5961938"
     sodipodi:ry="4.5961938"
     d="m -152.02795,84.581917 a 4.5961938,4.5961938 0 1 1 -9.19239,0 4.5961938,4.5961938 0 1 1 9.19239,0 z"
     transform="matrix(-0.8807622,0.638506,-0.638506,-0.8807622,193.92473,493.13926)" />
  <path
     sodipodi:type="arc"
     style="fill:#ffffff;fill-opacity:1;fill-rule:nonzero;stroke:none"
     id="path3306"
     sodipodi:cx="-156.62415"
     sodipodi:cy="84.581917"
     sodipodi:rx="4.5961938"
     sodipodi:ry="4.5961938"
     d="m -152.02795,84.581917 a 4.5961938,4.5961938 0 1 1 -9.19239,0 4.5961938,4.5961938 0 1 1 9.19239,0 z"
     transform="matrix(-0.8807622,0.638506,-0.638506,-0.8807622,-5.6346812,217.86479)" />
  <path
     sodipodi:type="arc"
     style="fill:#ffffff;fill-opacity:1;fill-rule:nonzero;stroke:none"
     id="path3308"
     sodipodi:cx="-156.62415"
     sodipodi:cy="84.581917"
     sodipodi:rx="4.5961938"
     sodipodi:ry="4.5961938"
     d="m -152.02795,84.581917 a 4.5961938,4.5961938 0 1 1 -9.19239,0 4.5961938,4.5961938 0 1 1 9.19239,0 z"
     transform="matrix(1.0820155,-0.1125813,0.1125813,1.0820155,320.44188,-97.239099)" />
  <path
     sodipodi:type="arc"
     style="fill:#ffffff;fill-opacity:1;fill-rule:nonzero;stroke:none"
     id="path3310"
     sodipodi:cx="-156.62415"
     sodipodi:cy="84.581917"
     sodipodi:rx="4.5961938"
     sodipodi:ry="4.5961938"
     d="m -152.02795,84.581917 a 4.5961938,4.5961938 0 1 1 -9.19239,0 4.5961938,4.5961938 0 1 1 9.19239,0 z"
     transform="matrix(1.0820155,-0.1125813,0.1125813,1.0820155,355.62816,240.9353)" />
  <path
     sodipodi:type="arc"
     style="fill:#aeaeae;fill-opacity:1;fill-rule:nonzero;stroke:none"
     id="path3230-2"
     sodipodi:cx="-156.62415"
     sodipodi:cy="84.581917"
     sodipodi:rx="4.5961938"
     sodipodi:ry="4.5961938"
     d="m -152.02795,84.581917 a 4.5961938,4.5961938 0 1 1 -9.19239,0 4.5961938,4.5961938 0 1 1 9.19239,0 z"
     transform="matrix(-0.1125851,1.0820152,-1.0820152,-0.1125851,82.076933,358.78365)" />
  <path
     sodipodi:type="arc"
     style="fill:#d50000;fill-opacity:1;fill-rule:nonzero;stroke:none"
     id="path3216-6"
     sodipodi:cx="-156.62415"
     sodipodi:cy="84.581917"
     sodipodi:rx="4.5961938"
     sodipodi:ry="4.5961938"
     d="m -152.02795,84.581917 a 4.5961938,4.5961938 0 1 1 -9.19239,0 4.5961938,4.5961938 0 1 1 9.19239,0 z"
     transform="matrix(1.0820152,0.1125851,-0.1125851,1.0820152,357.47544,-63.200806)" />
</svg>
